<?xml version="1.0" encoding="UTF-8" ?>
<!DOCTYPE svg PUBLIC "-//W3C//DTD SVG 1.1//EN" "http://www.w3.org/Graphics/SVG/1.1/DTD/svg11.dtd">
<svg width="1805pt" height="553pt" viewBox="0 0 1805 553" version="1.1" xmlns="http://www.w3.org/2000/svg">
<g id="#ffffffff">
</g>
<g id="#1f1f1fff">
<path fill="#1f1f1f" opacity="1.00" d=" M 807.35 0.00 L 815.53 0.00 C 848.62 1.22 881.04 15.09 904.57 38.43 C 930.36 63.50 945.41 99.19 945.18 135.17 C 926.19 135.20 907.20 135.19 888.21 135.18 C 888.47 101.04 865.18 67.76 832.30 57.74 C 816.24 52.69 798.45 53.58 782.94 60.07 C 764.38 67.73 749.22 82.88 740.94 101.10 C 733.47 117.16 731.87 135.64 735.54 152.90 C 738.56 167.60 746.64 181.21 758.28 190.73 C 772.43 202.12 788.78 210.38 805.48 217.35 C 825.24 225.60 845.06 233.70 864.72 242.20 C 878.13 247.77 891.24 254.28 902.96 262.92 C 937.47 287.72 961.30 326.79 967.48 368.85 C 972.10 399.25 967.67 430.98 954.81 458.92 C 943.36 483.96 925.31 505.92 903.01 522.05 C 879.19 539.40 850.47 549.88 821.08 552.00 C 813.07 553.14 804.92 552.99 796.92 551.92 C 760.25 549.22 724.84 533.14 698.48 507.55 C 671.77 481.92 654.35 446.76 650.50 409.91 C 669.70 409.90 688.90 409.89 708.10 409.92 C 713.12 439.16 730.80 465.95 755.72 482.05 C 772.86 493.23 793.49 499.07 813.96 498.03 C 834.75 497.13 855.04 489.25 871.32 476.35 C 894.03 458.54 909.10 431.27 911.77 402.50 C 913.81 381.94 909.40 360.82 899.35 342.77 C 889.30 324.53 873.57 309.46 854.88 300.26 C 829.42 288.59 803.30 278.45 777.58 267.41 C 758.71 259.29 740.58 249.24 724.34 236.61 C 710.05 225.38 698.11 211.08 690.05 194.77 C 681.14 176.89 676.95 156.88 676.66 136.97 C 675.78 101.73 689.66 66.50 714.22 41.24 C 738.29 15.98 772.49 0.91 807.35 0.00 Z" />
<path fill="#1f1f1f" opacity="1.00" d=" M 1103.40 0.00 L 1113.57 0.00 C 1135.90 1.32 1157.66 10.68 1173.75 26.26 C 1191.85 43.45 1202.68 68.03 1202.94 93.01 C 1202.97 107.13 1202.97 121.25 1202.95 135.36 C 1183.95 135.37 1164.96 135.39 1145.97 135.35 C 1145.88 121.88 1146.05 108.41 1145.89 94.94 C 1145.42 83.43 1142.70 71.11 1134.30 62.68 C 1126.48 54.76 1114.71 52.39 1103.95 53.14 C 1093.77 53.74 1083.84 58.44 1077.25 66.27 C 1068.84 76.03 1065.59 89.29 1065.86 101.96 C 1066.11 118.68 1064.83 135.60 1068.23 152.10 C 1071.00 166.53 1077.18 180.27 1086.11 191.94 C 1098.26 207.98 1114.05 220.63 1128.27 234.71 C 1141.96 247.99 1155.50 261.56 1166.81 276.96 C 1177.86 291.87 1186.67 308.46 1192.53 326.07 C 1199.97 348.22 1202.90 371.67 1202.96 394.97 C 1202.97 411.32 1202.96 427.67 1202.97 444.02 C 1202.90 454.38 1203.37 464.81 1201.70 475.09 C 1198.95 494.02 1190.53 512.31 1176.88 525.84 C 1161.84 540.99 1141.13 549.79 1120.03 551.89 C 1116.58 552.47 1113.11 552.78 1109.64 553.00 L 1107.33 553.00 C 1094.71 552.02 1082.01 549.79 1070.40 544.55 C 1048.45 534.97 1030.46 516.75 1021.19 494.67 C 1016.00 482.50 1013.51 469.22 1013.74 455.99 C 1013.75 422.58 1013.72 389.16 1013.76 355.75 C 1032.73 355.84 1051.85 355.48 1070.73 355.93 C 1070.78 386.97 1070.74 418.01 1070.75 449.06 C 1070.70 459.47 1072.49 470.13 1077.59 479.32 C 1081.77 486.94 1088.54 493.30 1096.82 496.20 C 1107.97 500.22 1121.19 498.01 1130.22 490.25 C 1139.64 482.33 1144.25 470.08 1145.51 458.10 C 1146.33 449.78 1145.82 441.41 1145.96 433.07 C 1145.94 419.38 1146.01 405.69 1145.93 392.00 C 1145.61 370.14 1141.69 347.95 1131.62 328.37 C 1122.65 310.62 1109.10 295.78 1095.03 281.95 C 1078.03 265.28 1060.40 248.99 1046.49 229.55 C 1030.60 207.80 1020.26 182.14 1016.27 155.52 C 1012.91 135.19 1013.86 114.52 1013.74 93.99 C 1013.78 72.87 1021.25 51.89 1034.51 35.46 C 1051.07 14.56 1076.78 1.38 1103.40 0.00 Z" />
<path fill="#1f1f1f" opacity="1.00" d=" M 1508.32 0.00 L 1508.41 0.00 C 1587.04 146.56 1665.60 293.15 1744.21 439.72 C 1764.23 476.97 1784.09 514.32 1804.23 551.50 C 1804.42 551.50 1804.81 551.49 1805.00 551.48 L 1805.00 553.00 L 1739.09 553.00 C 1731.97 538.07 1723.72 523.60 1716.17 508.84 C 1698.76 475.83 1681.44 442.76 1663.98 409.78 C 1560.20 409.75 1456.42 409.76 1352.65 409.78 C 1328.38 455.49 1304.30 501.32 1280.11 547.08 C 1278.86 548.99 1278.28 551.40 1276.65 553.00 L 1212.04 553.00 C 1212.08 551.10 1213.34 549.64 1214.13 548.00 C 1312.19 365.33 1410.30 182.69 1508.32 0.00 M 1381.18 355.54 C 1465.94 355.54 1550.71 355.57 1635.48 355.53 C 1593.08 278.34 1550.75 201.13 1508.39 123.92 C 1465.93 201.09 1423.59 278.34 1381.18 355.54 Z" />
<path fill="#1f1f1f" opacity="1.00" d=" M 110.01 55.82 C 150.14 25.39 198.76 6.28 248.90 1.45 C 293.67 -3.00 339.53 3.61 381.11 20.84 C 410.35 32.90 437.49 50.04 460.95 71.25 C 447.56 84.69 434.14 98.09 420.72 111.49 C 407.82 100.27 393.70 90.42 378.58 82.42 C 344.23 64.08 304.89 55.31 266.01 57.18 C 224.07 58.99 182.80 73.35 148.73 97.86 C 113.30 123.20 85.59 159.22 70.48 200.10 C 55.19 241.07 52.71 286.65 63.26 329.07 C 71.67 363.12 88.50 395.02 111.75 421.27 C 132.54 444.86 158.43 463.95 187.17 476.73 C 230.05 495.96 279.19 500.64 324.97 490.12 C 360.36 482.12 393.45 464.87 420.77 441.07 C 434.15 454.50 447.58 467.86 460.94 481.30 C 415.10 522.94 354.86 548.41 293.00 551.93 C 282.01 553.08 270.90 553.14 259.91 551.97 C 210.28 549.17 161.56 532.48 120.59 504.34 C 76.33 474.14 41.12 430.86 20.74 381.28 C 7.85 350.25 1.02 316.83 0.00 283.28 L 0.00 269.42 C 0.86 241.84 5.51 214.32 14.41 188.17 C 32.00 135.77 65.87 89.06 110.01 55.82 Z" />
<path fill="#1f1f1f" opacity="1.00" d=" M 498.11 136.15 C 539.24 132.40 581.50 148.19 610.22 177.84 C 637.91 205.76 652.89 245.69 650.21 284.95 C 648.08 323.00 629.38 359.64 600.10 383.97 C 570.27 409.27 529.56 421.01 490.84 415.50 C 455.68 410.87 422.75 392.10 400.57 364.47 C 384.51 344.68 373.98 320.44 370.62 295.17 C 366.66 266.35 371.90 236.33 385.60 210.65 C 399.72 183.86 422.72 161.88 450.13 149.01 C 465.18 141.90 481.52 137.52 498.11 136.15 M 496.56 193.73 C 473.78 197.29 452.88 210.91 440.22 230.16 C 428.02 248.37 423.57 271.50 428.03 292.96 C 431.88 312.12 442.81 329.72 458.17 341.79 C 471.96 352.77 489.32 359.17 506.94 359.74 C 524.90 360.42 543.02 355.08 557.71 344.73 C 573.91 333.46 585.92 316.29 590.82 297.16 C 595.56 278.96 593.92 259.15 586.14 242.01 C 578.26 224.42 564.09 209.75 546.80 201.26 C 531.38 193.59 513.55 190.97 496.56 193.73 Z" />
</g>
</svg>
