<svg width="35" height="30" viewBox="0 0 35 30" fill="none" xmlns="http://www.w3.org/2000/svg">
<path d="M1.4491 14.6815L9.11682 17.5433L12.0847 27.088C12.2746 27.6993 13.0221 27.9252 13.5183 27.5196L17.7924 24.0352C18.2404 23.6702 18.8786 23.652 19.3468 23.9919L27.0557 29.5887C27.5865 29.9745 28.3385 29.6837 28.4716 29.0423L34.1188 1.87809C34.2641 1.1775 33.5757 0.593039 32.9086 0.851048L1.44012 12.9907C0.663538 13.2902 0.670305 14.3896 1.4491 14.6815ZM11.6064 16.0199L26.592 6.79024C26.8613 6.62485 27.1384 6.98902 26.9071 7.20354L14.5397 18.6997C14.105 19.1043 13.8245 19.6459 13.7451 20.2336L13.3238 23.3557C13.268 23.7726 12.6825 23.8139 12.5674 23.4105L10.9472 17.7173C10.7616 17.068 11.032 16.3744 11.6064 16.0199Z" fill="white"/>
</svg>
