<svg width="32" height="33" viewBox="0 0 32 33" fill="none" xmlns="http://www.w3.org/2000/svg">
<path d="M21.8561 0.455505H10.0145C4.56537 0.455505 0.146484 4.8744 0.146484 10.3235V22.1651C0.146484 27.6142 4.56537 32.0331 10.0145 32.0331H21.8561C27.3052 32.0331 31.7241 27.6142 31.7241 22.1651V10.3235C31.7241 4.8744 27.3052 0.455505 21.8561 0.455505ZM28.7637 22.1651C28.7637 25.9741 25.6651 29.0727 21.8561 29.0727H10.0145C6.20544 29.0727 3.10688 25.9741 3.10688 22.1651V10.3235C3.10688 6.51446 6.20544 3.4159 10.0145 3.4159H21.8561C25.6651 3.4159 28.7637 6.51446 28.7637 10.3235V22.1651Z" fill="white"/>
<path d="M15.9354 8.34998C11.5757 8.34998 8.04102 11.8847 8.04102 16.2444C8.04102 20.6041 11.5757 24.1388 15.9354 24.1388C20.2951 24.1388 23.8298 20.6041 23.8298 16.2444C23.8298 11.8847 20.2951 8.34998 15.9354 8.34998ZM15.9354 21.1784C13.2158 21.1784 11.0014 18.964 11.0014 16.2444C11.0014 13.5228 13.2158 11.3104 15.9354 11.3104C18.655 11.3104 20.8694 13.5228 20.8694 16.2444C20.8694 18.964 18.655 21.1784 15.9354 21.1784Z" fill="white"/>
<path d="M24.422 8.80985C25.003 8.80985 25.474 8.33889 25.474 7.75792C25.474 7.17696 25.003 6.70599 24.422 6.70599C23.8411 6.70599 23.3701 7.17696 23.3701 7.75792C23.3701 8.33889 23.8411 8.80985 24.422 8.80985Z" fill="white"/>
</svg>
