<svg width="73" height="17" viewBox="0 0 73 17" fill="none" xmlns="http://www.w3.org/2000/svg">
<path fill-rule="evenodd" clip-rule="evenodd" d="M23.88 1.27821C19.2792 2.89669 17.14 7.96067 19.2163 12.3187C19.8472 13.6427 21.336 15.1672 22.6812 15.8667C25.2354 17.1947 28.4329 17.1116 30.7168 15.6578C31.4158 15.2131 32.9707 13.7492 32.846 13.6536C32.8093 13.6254 32.3543 13.2775 31.8351 12.8805L30.8908 12.1585L30.1192 12.8449C27.9413 14.7824 24.7013 14.6859 22.7288 12.6248C21.3877 11.2233 20.9524 8.982 21.6215 6.92296C22.0366 5.64603 23.0657 4.43206 24.2609 3.80968C24.9576 3.44679 25.1932 3.40682 26.6401 3.40592C28.023 3.40502 28.3554 3.45536 29.032 3.76866L29.8179 4.13244V5.4591V6.78577H31.1087H32.3995V4.82906V2.87234L31.4843 2.28707C29.9884 1.3305 28.9656 1.04666 26.7806 0.981896C25.0883 0.931858 24.7736 0.964014 23.88 1.27821ZM0.508301 2.49398V3.76926L1.90711 3.81238L3.30607 3.85566L4.17458 6.25985C4.65234 7.58216 5.69169 10.4559 6.48442 12.646L7.9256 16.6279H9.17528H10.4248L12.8481 10.2042L15.2714 3.78053H16.546H17.8207V2.5033V1.22607H15.5585H13.2964L12.6962 2.91652C12.3661 3.84634 11.4929 6.34805 10.7557 8.47622C10.0186 10.6042 9.37604 12.3452 9.3279 12.3447C9.27976 12.3444 8.378 9.85938 7.32392 6.82258L5.4074 1.3012L2.95785 1.25988L0.508301 1.21856V2.49398ZM49.1384 1.53591C47.9304 1.77152 46.1337 3.01314 45.5773 3.99675C45.285 4.51366 45.156 4.17151 45.156 2.87895V1.5266H42.7262H40.2964V2.65356V3.78053H41.5873H42.8781V8.96457V14.1486H41.5873H40.2964V15.3507V16.5528H46.2191H52.1418V15.3537V14.1545L48.8387 14.114L45.5357 14.0735L45.4944 11.1599C45.4478 7.87111 45.6037 6.9171 46.3846 5.7129C47.1013 4.60787 48.4364 3.78053 49.5033 3.78053C49.8507 3.78053 49.8638 3.82155 49.8638 4.90749V6.03446H51.1546H52.4455V3.7054V1.37633L51.1167 1.39286C50.3859 1.40188 49.4955 1.46619 49.1384 1.53591ZM55.3628 2.76626L55.4068 4.00592L56.5837 4.0498L57.7607 4.09367L57.7625 8.182C57.7645 12.5914 57.8535 13.2842 58.5744 14.5014C59.4827 16.0348 60.9308 16.8685 62.8683 16.9729C64.8481 17.0796 66.3324 16.418 67.365 14.9687C67.925 14.1824 68.0268 14.263 68.1724 15.6089L68.2746 16.5528H70.3829H72.4914V15.3507V14.1486H71.5242H70.557L70.4628 13.5851C70.411 13.2753 70.3679 10.4352 70.367 7.27412L70.3653 1.5266H67.6257H64.8859L64.9301 2.76626L64.9742 4.00592L66.3127 4.0495L67.6512 4.09307L67.6035 7.73092C67.5496 11.8436 67.4656 12.2093 66.3133 13.3495C64.292 15.3495 61.3427 14.8361 60.6485 12.3632C60.56 12.0479 60.4956 9.65713 60.4951 6.67307L60.4942 1.5266H57.9065H55.3186L55.3628 2.76626ZM34.9812 15.3507V16.7031H36.2721H37.5629V15.3507V13.9983H36.2721H34.9812V15.3507Z" fill="white"/>
</svg>
