<svg width="32" height="32" viewBox="0 0 32 32" fill="none" xmlns="http://www.w3.org/2000/svg">
<path fill-rule="evenodd" clip-rule="evenodd" d="M14.7727 0.206348C14.7492 0.229813 14.4694 0.273632 14.1508 0.303757C13.8323 0.333945 13.4037 0.387909 13.1983 0.423699C12.9929 0.45955 12.7128 0.504676 12.5759 0.523971C12.4389 0.543204 12.3003 0.58416 12.2678 0.614845C12.2352 0.645593 12.1298 0.670739 12.0335 0.670739C11.9372 0.670739 11.8097 0.695325 11.7503 0.725326C11.5687 0.817071 11.2054 0.919709 11.0621 0.919709C10.9875 0.919709 10.9265 0.947718 10.9265 0.981952C10.9265 1.01618 10.8581 1.04419 10.7745 1.04419C10.6909 1.04419 10.6087 1.06666 10.5917 1.09411C10.5748 1.12156 10.4191 1.18262 10.2457 1.22986C10.0725 1.27704 9.9306 1.3386 9.9306 1.36667C9.9306 1.39468 9.88822 1.41765 9.83637 1.41765C9.78458 1.41765 9.69352 1.44448 9.63408 1.47734C9.57464 1.51014 9.25995 1.66407 8.93474 1.81942C8.26968 2.13717 7.97976 2.29819 7.94927 2.36685C7.93781 2.39255 7.88765 2.41353 7.83773 2.41353C7.78781 2.41353 7.68679 2.46955 7.61335 2.53801C7.53984 2.60648 7.44299 2.6625 7.39805 2.6625C7.35318 2.6625 7.31645 2.68709 7.31645 2.71721C7.31645 2.74727 7.23243 2.80672 7.12973 2.84923C7.02703 2.89174 6.943 2.94645 6.943 2.97072C6.943 2.99506 6.86601 3.05469 6.77184 3.10324C6.67767 3.15179 6.53638 3.25461 6.45783 3.33161C6.37922 3.40866 6.28916 3.47165 6.2576 3.47165C6.22604 3.47165 6.10828 3.56271 5.99587 3.67394C5.88353 3.78517 5.66581 3.97426 5.51207 4.09408C5.14186 4.3827 4.14979 5.37559 3.95734 5.65014C3.87331 5.76996 3.72648 5.94224 3.63107 6.03299C3.53559 6.12374 3.45748 6.22881 3.45748 6.2664C3.45748 6.30406 3.42947 6.33481 3.39523 6.33481C3.361 6.33481 3.33299 6.36655 3.33299 6.40533C3.33299 6.44411 3.28376 6.5211 3.22363 6.57649C3.16351 6.63183 3.07475 6.75413 3.02639 6.84831C2.97809 6.94242 2.91523 7.01947 2.88678 7.01947C2.85834 7.01947 2.83506 7.06149 2.83506 7.11284C2.83506 7.16419 2.80705 7.2062 2.77282 7.2062C2.73858 7.2062 2.71058 7.24822 2.71058 7.29957C2.71058 7.35092 2.68257 7.39293 2.64833 7.39293C2.6141 7.39293 2.58609 7.42965 2.58609 7.47453C2.58609 7.51947 2.53008 7.61632 2.46161 7.68983C2.39314 7.76327 2.33713 7.86659 2.33713 7.91938C2.33713 7.97216 2.31615 8.0156 2.29045 8.01585C2.26474 8.0161 2.21295 8.07915 2.17524 8.1559C1.99131 8.53047 1.80334 8.85774 1.76139 8.87635C1.73575 8.88781 1.71471 8.9508 1.71471 9.0164C1.71471 9.082 1.6867 9.13572 1.65247 9.13572C1.61824 9.13572 1.59023 9.17811 1.59023 9.22995C1.59023 9.28174 1.56222 9.37977 1.52799 9.4478C1.49375 9.51577 1.43774 9.62706 1.4035 9.69503C1.36927 9.76306 1.34126 9.86109 1.34126 9.91288C1.34126 9.96473 1.31325 10.0071 1.27902 10.0071C1.24479 10.0071 1.21678 10.0755 1.21678 10.159C1.21678 10.2426 1.18877 10.3283 1.15454 10.3494C1.1203 10.3706 1.09229 10.4423 1.09229 10.5087C1.09229 10.5752 1.06429 10.6295 1.03005 10.6295C0.99582 10.6295 0.967812 10.7136 0.967812 10.8163C0.967812 10.919 0.939803 11.003 0.90557 11.003C0.871337 11.003 0.843328 11.0853 0.843328 11.186C0.843328 11.2868 0.81532 11.3864 0.781087 11.4076C0.746854 11.4287 0.718845 11.5268 0.718845 11.6254C0.718845 11.7241 0.690837 11.8221 0.656604 11.8433C0.622371 11.8644 0.594362 11.9765 0.594362 12.0922C0.594362 12.208 0.566353 12.32 0.53212 12.3412C0.497888 12.3624 0.469879 12.4884 0.469879 12.6213C0.469879 12.7542 0.44187 12.8802 0.407637 12.9014C0.373404 12.9226 0.345396 13.0726 0.345396 13.2349C0.345396 13.3973 0.319441 13.5567 0.287698 13.5892C0.145911 13.7344 0.0924458 16.8035 0.214004 17.8185C0.250913 18.1266 0.298154 18.5398 0.319005 18.7366C0.339856 18.9334 0.382305 19.0945 0.413426 19.0945C0.444484 19.0945 0.469879 19.2189 0.469879 19.3709C0.469879 19.523 0.497888 19.6647 0.53212 19.6858C0.566353 19.707 0.594362 19.819 0.594362 19.9348C0.594362 20.0506 0.622371 20.1626 0.656604 20.1838C0.690837 20.2049 0.718845 20.3046 0.718845 20.4053C0.718845 20.506 0.746854 20.5883 0.781087 20.5883C0.81532 20.5883 0.843328 20.6724 0.843328 20.7751C0.843328 20.8778 0.871337 20.9618 0.90557 20.9618C0.939803 20.9618 0.967812 21.0458 0.967812 21.1485C0.967812 21.2512 0.99582 21.3353 1.03005 21.3353C1.06429 21.3353 1.09229 21.4193 1.09229 21.522C1.09229 21.6247 1.1203 21.7087 1.15454 21.7087C1.18877 21.7087 1.21678 21.7647 1.21678 21.8332C1.21678 21.9017 1.24479 21.9577 1.27902 21.9577C1.31325 21.9577 1.34126 22.026 1.34126 22.1096C1.34126 22.1932 1.36927 22.2788 1.4035 22.3C1.43774 22.3212 1.46574 22.3928 1.46574 22.4593C1.46574 22.5258 1.49375 22.5801 1.52799 22.5801C1.56222 22.5801 1.59023 22.6361 1.59023 22.7046C1.59023 22.7731 1.61824 22.8291 1.65247 22.8291C1.6867 22.8291 1.71471 22.8851 1.71471 22.9536C1.71471 23.022 1.74272 23.078 1.77695 23.078C1.81119 23.078 1.83919 23.1341 1.83919 23.2025C1.83919 23.271 1.8672 23.327 1.90144 23.327C1.93567 23.327 1.96368 23.3807 1.96368 23.4463C1.96368 23.5119 1.98471 23.5749 2.01036 23.5864C2.0688 23.6123 2.2709 23.9438 2.31709 24.0895C2.33613 24.1494 2.3764 24.1984 2.40665 24.1984C2.43684 24.1984 2.46161 24.2483 2.46161 24.3091C2.46161 24.3701 2.51763 24.4603 2.58609 24.5096C2.65456 24.559 2.71058 24.643 2.71058 24.6963C2.71058 24.7497 2.76659 24.8337 2.83506 24.8831C2.90353 24.9324 2.9596 25.0016 2.95967 25.0369C2.95979 25.0721 3.04376 25.199 3.14627 25.3188C3.24878 25.4386 3.33274 25.5604 3.33287 25.5895C3.33293 25.6185 3.41111 25.7166 3.50658 25.8073C3.602 25.8981 3.74889 26.0703 3.83292 26.1902C4.03109 26.4727 5.4156 27.8573 5.69817 28.0554C5.81799 28.1395 5.99027 28.2864 6.08102 28.3818C6.17177 28.4773 6.2698 28.5554 6.29887 28.5555C6.32793 28.5556 6.44974 28.6396 6.56956 28.7421C6.68937 28.8446 6.81622 28.9286 6.85145 28.9287C6.88668 28.9288 6.95589 28.9849 7.00525 29.0533C7.0546 29.1218 7.14479 29.1778 7.20573 29.1778C7.2666 29.1778 7.31645 29.2011 7.31645 29.2295C7.31645 29.258 7.39345 29.321 7.48762 29.3695C7.58173 29.418 7.67279 29.4718 7.6899 29.4889C7.75121 29.5504 8.09653 29.7463 8.2034 29.7802C8.26334 29.7992 8.31232 29.8395 8.31232 29.8698C8.31232 29.8999 8.36834 29.9247 8.4368 29.9247C8.50527 29.9247 8.56129 29.9527 8.56129 29.987C8.56129 30.0212 8.6173 30.0492 8.68577 30.0492C8.75424 30.0492 8.81025 30.0772 8.81025 30.1114C8.81025 30.1457 8.86627 30.1737 8.93474 30.1737C9.0032 30.1737 9.05922 30.2017 9.05922 30.2359C9.05922 30.2702 9.11524 30.2982 9.1837 30.2982C9.25217 30.2982 9.30819 30.3262 9.30819 30.3604C9.30819 30.3946 9.34491 30.4227 9.38985 30.4227C9.43478 30.4227 9.58746 30.4787 9.72919 30.5471C9.87091 30.6156 10.0302 30.6716 10.0832 30.6716C10.1362 30.6716 10.1796 30.6996 10.1796 30.7339C10.1796 30.7681 10.244 30.7961 10.3227 30.7961C10.4015 30.7961 10.4925 30.8193 10.525 30.8475C10.5576 30.8758 10.7102 30.9345 10.8642 30.9781C11.0183 31.0216 11.1929 31.0825 11.2524 31.1134C11.3118 31.1443 11.4292 31.1696 11.5132 31.1696C11.5972 31.1696 11.6833 31.1976 11.7045 31.2318C11.7256 31.266 11.8377 31.2941 11.9535 31.2941C12.0692 31.2941 12.1795 31.3191 12.1984 31.3497C12.2173 31.3803 12.338 31.4213 12.4666 31.4406C12.5952 31.4601 12.8684 31.506 13.0738 31.5429C14.704 31.8353 17.3212 31.8352 18.7689 31.5426C18.9572 31.5046 19.2303 31.4583 19.3758 31.4398C19.5212 31.4212 19.6403 31.3808 19.6403 31.35C19.6403 31.3193 19.7523 31.2941 19.8893 31.2941C20.0262 31.2941 20.1382 31.266 20.1382 31.2318C20.1382 31.1976 20.1967 31.1696 20.2682 31.1696C20.4092 31.1696 21.5812 30.7918 21.632 30.7299C21.6491 30.709 21.7962 30.6533 21.9588 30.606C22.1214 30.5587 22.2544 30.4981 22.2544 30.4713C22.2544 30.4446 22.3105 30.4227 22.3789 30.4227C22.4474 30.4227 22.5034 30.3946 22.5034 30.3604C22.5034 30.3262 22.5398 30.2982 22.5844 30.2982C22.6988 30.2982 23.0003 30.1518 23.0008 30.0959C23.0011 30.0702 23.0574 30.0492 23.1258 30.0492C23.1943 30.0492 23.2503 30.0212 23.2503 29.987C23.2503 29.9527 23.3063 29.9247 23.3748 29.9247C23.4433 29.9247 23.4993 29.8967 23.4993 29.8625C23.4993 29.8282 23.5553 29.8002 23.6238 29.8002C23.6922 29.8002 23.7482 29.7756 23.7482 29.7455C23.7482 29.7155 23.8323 29.656 23.935 29.6135C24.0377 29.571 24.1217 29.5115 24.1217 29.4815C24.1217 29.4514 24.1777 29.4268 24.2462 29.4268C24.3146 29.4268 24.3707 29.4035 24.3707 29.3751C24.3707 29.3466 24.4477 29.2836 24.5418 29.235C24.6359 29.1865 24.7673 29.0976 24.8337 29.0378C24.9 28.9778 24.9783 28.9288 25.0076 28.9288C25.0369 28.9288 25.131 28.8588 25.2166 28.7732C25.3022 28.6876 25.3954 28.6176 25.4237 28.6176C25.4521 28.6176 25.5978 28.5056 25.7476 28.3687C25.8974 28.2317 26.0403 28.1197 26.0652 28.1197C26.1158 28.1197 27.9807 26.2736 27.9807 26.2235C27.9807 26.1849 28.1478 25.978 28.3386 25.7806C28.4155 25.7009 28.4786 25.6063 28.4786 25.5705C28.4786 25.5348 28.5066 25.5055 28.5408 25.5055C28.5751 25.5055 28.6031 25.4696 28.6031 25.4259C28.6031 25.3821 28.6591 25.3059 28.7276 25.2565C28.796 25.2072 28.852 25.1363 28.852 25.0989C28.852 25.0616 28.901 24.9767 28.961 24.9104C29.0208 24.844 29.1097 24.7127 29.1582 24.6185C29.2068 24.5244 29.2698 24.4474 29.2983 24.4474C29.3267 24.4474 29.35 24.3914 29.35 24.3229C29.35 24.2544 29.378 24.1984 29.4122 24.1984C29.4465 24.1984 29.4745 24.1564 29.4745 24.105C29.4745 24.0537 29.5025 24.0117 29.5367 24.0117C29.5709 24.0117 29.5989 23.9697 29.5989 23.9183C29.5989 23.867 29.627 23.825 29.6612 23.825C29.6954 23.825 29.7234 23.7689 29.7234 23.7005C29.7234 23.632 29.7514 23.576 29.7857 23.576C29.8199 23.576 29.8479 23.52 29.8479 23.4515C29.8479 23.383 29.8759 23.327 29.9102 23.327C29.9444 23.327 29.9724 23.271 29.9724 23.2025C29.9724 23.1341 30.0004 23.078 30.0346 23.078C30.0689 23.078 30.0969 23.022 30.0969 22.9536C30.0969 22.8851 30.1249 22.8291 30.1591 22.8291C30.1934 22.8291 30.2214 22.7731 30.2214 22.7046C30.2214 22.6361 30.2494 22.5801 30.2836 22.5801C30.3178 22.5801 30.3458 22.5241 30.3458 22.4556C30.3458 22.3871 30.3739 22.3311 30.4081 22.3311C30.4423 22.3311 30.4703 22.2611 30.4703 22.1755C30.4703 22.0899 30.4983 22.0199 30.5326 22.0199C30.5668 22.0199 30.5948 21.9499 30.5948 21.8643C30.5948 21.7787 30.6228 21.7087 30.6571 21.7087C30.6913 21.7087 30.7193 21.6404 30.7193 21.5568C30.7193 21.4732 30.7473 21.3875 30.7815 21.3664C30.8158 21.3452 30.8438 21.2612 30.8438 21.1796C30.8438 21.0981 30.8718 21.0141 30.906 20.9929C30.9403 20.9718 30.9683 20.8877 30.9683 20.8062C30.9683 20.7247 30.9963 20.6406 31.0305 20.6195C31.0647 20.5983 31.0927 20.4986 31.0927 20.3979C31.0927 20.2972 31.1208 20.2149 31.155 20.2149C31.1892 20.2149 31.2172 20.1028 31.2172 19.9659C31.2172 19.829 31.2424 19.7169 31.2732 19.7169C31.3272 19.7169 31.3693 19.4893 31.4429 18.7989C31.462 18.6192 31.501 18.4721 31.5296 18.4721C31.6104 18.4721 31.6612 17.5152 31.6618 15.9824C31.6624 14.4674 31.6148 13.6204 31.5238 13.5269C31.4921 13.4944 31.4662 13.335 31.4662 13.1727C31.4662 13.0104 31.4382 12.8603 31.404 12.8391C31.3697 12.818 31.3417 12.6919 31.3417 12.5591C31.3417 12.4262 31.3137 12.3001 31.2795 12.279C31.2452 12.2578 31.2172 12.1441 31.2172 12.0263C31.2172 11.9085 31.1892 11.8121 31.155 11.8121C31.1208 11.8121 31.0927 11.7141 31.0927 11.5943C31.0927 11.4745 31.0647 11.3764 31.0305 11.3764C30.9963 11.3764 30.9683 11.2924 30.9683 11.1897C30.9683 11.087 30.9403 11.003 30.906 11.003C30.8718 11.003 30.8438 10.919 30.8438 10.8163C30.8438 10.7136 30.8158 10.6295 30.7815 10.6295C30.7473 10.6295 30.7193 10.5612 30.7193 10.4776C30.7193 10.394 30.6913 10.3084 30.6571 10.2872C30.6228 10.266 30.5948 10.1944 30.5948 10.1279C30.5948 10.0615 30.5668 10.0071 30.5326 10.0071C30.4983 10.0071 30.4703 9.93709 30.4703 9.85151C30.4703 9.76592 30.4423 9.6959 30.4081 9.6959C30.3739 9.6959 30.3458 9.62588 30.3458 9.5403C30.3458 9.45471 30.3178 9.38469 30.2836 9.38469C30.2494 9.38469 30.2214 9.32867 30.2214 9.2602C30.2214 9.19174 30.1934 9.13572 30.1591 9.13572C30.1249 9.13572 30.0969 9.0797 30.0969 9.01123C30.0969 8.94277 30.0689 8.88675 30.0346 8.88675C30.0004 8.88675 29.9724 8.83073 29.9724 8.76226C29.9724 8.6938 29.9444 8.63778 29.9102 8.63778C29.8759 8.63778 29.8479 8.58176 29.8479 8.51329C29.8479 8.44483 29.8199 8.38881 29.7857 8.38881C29.7514 8.38881 29.7234 8.3468 29.7234 8.29545C29.7234 8.2441 29.6954 8.20208 29.6612 8.20208C29.627 8.20208 29.5989 8.16007 29.5989 8.10872C29.5989 8.05737 29.5709 8.01535 29.5367 8.01535C29.5025 8.01535 29.4745 7.95934 29.4745 7.89087C29.4745 7.8224 29.4465 7.76638 29.4122 7.76638C29.378 7.76638 29.35 7.72437 29.35 7.67302C29.35 7.62167 29.322 7.57966 29.2877 7.57966C29.2535 7.57966 29.2255 7.53764 29.2255 7.48629C29.2255 7.43494 29.1975 7.39293 29.1633 7.39293C29.129 7.39293 29.101 7.35621 29.101 7.31133C29.101 7.26639 29.045 7.16954 28.9765 7.09603C28.9081 7.02259 28.852 6.93327 28.852 6.8976C28.852 6.86194 28.824 6.83275 28.7898 6.83275C28.7556 6.83275 28.7276 6.7969 28.7276 6.75314C28.7276 6.70932 28.6715 6.63314 28.6031 6.58378C28.5346 6.53442 28.4786 6.4616 28.4786 6.42195C28.4786 6.3823 28.3666 6.23435 28.2296 6.09324C28.0927 5.95214 27.9807 5.80873 27.9807 5.77456C27.9807 5.74033 27.9527 5.71238 27.9184 5.71238C27.8842 5.71238 27.8562 5.68363 27.8562 5.64846C27.8562 5.57134 26.2574 3.96959 26.1805 3.96959C26.1508 3.96959 25.993 3.84355 25.83 3.6895C25.6669 3.53545 25.5086 3.40941 25.4782 3.40941C25.4479 3.40941 25.3531 3.33939 25.2675 3.2538C25.1819 3.16822 25.0895 3.0982 25.0622 3.0982C25.0348 3.0982 24.9311 3.02824 24.8316 2.94265C24.7321 2.85713 24.6158 2.78711 24.5729 2.78705C24.5302 2.78705 24.4951 2.7624 24.4951 2.73227C24.4951 2.70221 24.4111 2.64277 24.3084 2.60026C24.2057 2.55775 24.1217 2.4983 24.1217 2.46824C24.1217 2.43812 24.0657 2.41353 23.9972 2.41353C23.9287 2.41353 23.8727 2.38894 23.8727 2.35882C23.8727 2.32875 23.7887 2.26931 23.686 2.2268C23.5833 2.18429 23.4993 2.12485 23.4993 2.09479C23.4993 2.06466 23.4433 2.04007 23.3748 2.04007C23.3063 2.04007 23.2503 2.01207 23.2503 1.97783C23.2503 1.9436 23.1943 1.91559 23.1258 1.91559C23.0574 1.91559 23.0013 1.88758 23.0013 1.85335C23.0013 1.81911 22.9453 1.7911 22.8769 1.7911C22.8084 1.7911 22.7524 1.7631 22.7524 1.72886C22.7524 1.69463 22.7156 1.66662 22.6707 1.66662C22.6258 1.66662 22.4731 1.6106 22.3314 1.54213C22.1896 1.47367 22.0304 1.41765 21.9773 1.41765C21.9244 1.41765 21.881 1.39468 21.881 1.36667C21.881 1.3386 21.7409 1.27754 21.5698 1.23092C21.3986 1.1843 21.2586 1.12324 21.2586 1.09517C21.2586 1.06716 21.1745 1.04419 21.0718 1.04419C20.9691 1.04419 20.8851 1.01618 20.8851 0.981952C20.8851 0.947718 20.8028 0.919709 20.7021 0.919709C20.6014 0.919709 20.5037 0.894937 20.485 0.864624C20.4663 0.834375 20.3736 0.794041 20.279 0.77512C20.1845 0.756136 19.9811 0.709143 19.827 0.670677C19.2159 0.517996 18.3581 0.363323 17.7108 0.289068C17.0388 0.21195 14.8293 0.149769 14.7727 0.206348ZM17.1817 1.04805C17.5925 1.0788 18.1107 1.13333 18.3332 1.16924C18.5557 1.20515 18.8498 1.25059 18.9868 1.27026C19.1237 1.28987 19.2623 1.33107 19.2949 1.36176C19.3273 1.3925 19.4464 1.41765 19.5594 1.41765C19.6723 1.41765 19.7648 1.44566 19.7648 1.47989C19.7648 1.51412 19.8258 1.54213 19.9004 1.54213C20.0437 1.54213 20.407 1.64477 20.5886 1.73652C20.648 1.76652 20.7514 1.7911 20.8183 1.7911C20.8852 1.7911 20.9539 1.81357 20.9709 1.84102C20.9878 1.86847 21.1436 1.92953 21.3169 1.97677C21.4902 2.02395 21.632 2.08551 21.632 2.11358C21.632 2.14159 21.688 2.16456 21.7565 2.16456C21.825 2.16456 21.881 2.19257 21.881 2.2268C21.881 2.26104 21.93 2.28942 21.9899 2.28985C22.0498 2.29029 22.3229 2.40668 22.5968 2.54847C22.8706 2.69032 23.1575 2.83697 23.2342 2.87443C23.311 2.91191 23.374 2.96357 23.3743 2.98927C23.3745 3.01498 23.4308 3.03595 23.4993 3.03595C23.5677 3.03595 23.6238 3.06054 23.6238 3.09067C23.6238 3.12073 23.7078 3.18017 23.8105 3.22268C23.9132 3.26519 23.9972 3.32121 23.9972 3.34717C23.9972 3.37312 24.0812 3.42914 24.1839 3.47165C24.2866 3.51416 24.3707 3.57174 24.3707 3.5995C24.3707 3.62726 24.4275 3.66803 24.4971 3.69012C24.5667 3.71222 24.6914 3.79811 24.7744 3.88108C24.8573 3.96399 24.95 4.03183 24.9803 4.03183C25.0107 4.03183 25.169 4.15788 25.332 4.31193C25.4951 4.46598 25.6512 4.59202 25.6789 4.59202C25.775 4.59202 27.3582 6.21225 27.3582 6.31053C27.3582 6.33064 27.4423 6.42562 27.545 6.52153C27.6477 6.61745 27.7317 6.72675 27.7317 6.76434C27.7317 6.802 27.7597 6.83275 27.7939 6.83275C27.8282 6.83275 27.8562 6.8686 27.8562 6.91236C27.8562 6.95617 27.9122 7.03236 27.9807 7.08172C28.0491 7.13108 28.1051 7.20726 28.1051 7.25108C28.1051 7.29484 28.1332 7.33069 28.1674 7.33069C28.2016 7.33069 28.2296 7.35988 28.2296 7.39554C28.2296 7.43121 28.2856 7.52053 28.3541 7.59397C28.4226 7.66748 28.4786 7.76433 28.4786 7.80927C28.4786 7.85415 28.5066 7.89087 28.5408 7.89087C28.5751 7.89087 28.6031 7.93288 28.6031 7.98423C28.6031 8.03558 28.6311 8.0776 28.6653 8.0776C28.6996 8.0776 28.7276 8.11961 28.7276 8.17096C28.7276 8.22231 28.7556 8.26432 28.7898 8.26432C28.824 8.26432 28.852 8.32034 28.852 8.38881C28.852 8.45728 28.873 8.51354 28.8987 8.51379C28.9244 8.51404 28.9763 8.57709 29.0141 8.65384C29.0518 8.73058 29.1709 8.95727 29.2786 9.15763C29.3863 9.35793 29.4745 9.56096 29.4745 9.60889C29.4745 9.65675 29.5025 9.6959 29.5367 9.6959C29.5709 9.6959 29.5989 9.75024 29.5989 9.81671C29.5989 9.88319 29.627 9.95483 29.6612 9.97599C29.6954 9.99716 29.7234 10.0688 29.7234 10.1353C29.7234 10.2017 29.7514 10.2561 29.7857 10.2561C29.8199 10.2561 29.8479 10.3261 29.8479 10.4117C29.8479 10.4973 29.8759 10.5673 29.9102 10.5673C29.9444 10.5673 29.9724 10.6373 29.9724 10.7229C29.9724 10.8085 30.0004 10.8785 30.0346 10.8785C30.0689 10.8785 30.0969 10.9625 30.0969 11.0652C30.0969 11.1679 30.1249 11.252 30.1591 11.252C30.1934 11.252 30.2214 11.336 30.2214 11.4387C30.2214 11.5414 30.2494 11.6254 30.2836 11.6254C30.3178 11.6254 30.3458 11.7218 30.3458 11.8396C30.3458 11.9574 30.3739 12.0711 30.4081 12.0922C30.4423 12.1134 30.4703 12.2254 30.4703 12.3412C30.4703 12.457 30.4983 12.569 30.5326 12.5902C30.5668 12.6113 30.5948 12.7334 30.5948 12.8615C30.5948 12.9896 30.6203 13.121 30.6516 13.1535C30.6828 13.186 30.7255 13.3807 30.7464 13.5861C30.7673 13.7915 30.8138 14.2396 30.8498 14.5819C30.9578 15.6112 30.9096 17.9299 30.7774 18.0644C30.7454 18.0969 30.7193 18.286 30.7193 18.4845C30.7193 18.6837 30.6914 18.8456 30.6571 18.8456C30.6228 18.8456 30.5948 18.9699 30.5948 19.122C30.5948 19.274 30.5668 19.4157 30.5326 19.4369C30.4983 19.458 30.4703 19.5701 30.4703 19.6858C30.4703 19.8016 30.4423 19.9136 30.4081 19.9348C30.3739 19.956 30.3458 20.0556 30.3458 20.1563C30.3458 20.257 30.3178 20.3394 30.2836 20.3394C30.2494 20.3394 30.2214 20.4234 30.2214 20.5261C30.2214 20.6288 30.1934 20.7128 30.1591 20.7128C30.1249 20.7128 30.0969 20.7969 30.0969 20.8996C30.0969 21.0023 30.0689 21.0863 30.0346 21.0863C30.0004 21.0863 29.9724 21.1703 29.9724 21.273C29.9724 21.3757 29.9444 21.4597 29.9102 21.4597C29.8759 21.4597 29.8479 21.5021 29.8479 21.554C29.8479 21.6058 29.8155 21.7108 29.776 21.7874C29.625 22.0794 29.5989 22.1455 29.5989 22.2369C29.5989 22.2887 29.5709 22.3311 29.5367 22.3311C29.5025 22.3311 29.4745 22.3871 29.4745 22.4556C29.4745 22.5241 29.4465 22.5801 29.4122 22.5801C29.378 22.5801 29.35 22.6361 29.35 22.7046C29.35 22.7731 29.322 22.8291 29.2877 22.8291C29.2535 22.8291 29.2255 22.8851 29.2255 22.9536C29.2255 23.022 29.2007 23.078 29.1705 23.078C29.1403 23.078 29.1 23.127 29.081 23.187C29.0348 23.3326 28.8327 23.6641 28.7742 23.6901C28.7485 23.7015 28.7276 23.7584 28.7276 23.8164C28.7276 23.8744 28.6715 23.9623 28.6031 24.0117C28.5346 24.061 28.4786 24.1512 28.4786 24.2122C28.4786 24.273 28.4553 24.3229 28.4269 24.3229C28.3984 24.3229 28.3356 24.3999 28.2873 24.4941C28.2389 24.5882 28.1501 24.7105 28.09 24.7659C28.0299 24.8213 27.9807 24.8983 27.9807 24.937C27.9807 24.9758 27.9527 25.0076 27.9184 25.0076C27.8842 25.0076 27.8562 25.0383 27.8562 25.076C27.8562 25.1136 27.7722 25.2229 27.6695 25.3188C27.5668 25.4147 27.4827 25.524 27.4827 25.5616C27.4827 25.5992 27.4547 25.63 27.4205 25.63C27.3863 25.63 27.3582 25.6587 27.3582 25.6938C27.3582 25.7652 25.6381 27.4973 25.5672 27.4973C25.5424 27.4973 25.3995 27.6093 25.2497 27.7462C25.0999 27.8832 24.9542 27.9952 24.9258 27.9952C24.8975 27.9952 24.8042 28.0652 24.7186 28.1508C24.6331 28.2364 24.539 28.3064 24.5097 28.3064C24.4804 28.3064 24.4021 28.3554 24.3357 28.4153C24.2693 28.4752 24.138 28.564 24.0439 28.6126C23.9498 28.6611 23.8727 28.7242 23.8727 28.7526C23.8727 28.7811 23.8167 28.8043 23.7482 28.8043C23.6798 28.8043 23.6238 28.8291 23.6238 28.8593C23.6238 28.8896 23.5747 28.9298 23.5148 28.9489C23.3692 28.9951 23.0377 29.1972 23.0117 29.2556C23.0003 29.2813 22.9373 29.3023 22.8717 29.3023C22.8061 29.3023 22.7524 29.3303 22.7524 29.3645C22.7524 29.3988 22.6964 29.4268 22.6279 29.4268C22.5594 29.4268 22.5034 29.4548 22.5034 29.489C22.5034 29.5233 22.4474 29.5513 22.3789 29.5513C22.3105 29.5513 22.2544 29.5793 22.2544 29.6135C22.2544 29.6477 22.2111 29.6757 22.1581 29.6757C22.1051 29.6757 21.9458 29.7318 21.8041 29.8002C21.6623 29.8687 21.5097 29.9247 21.4647 29.9247C21.4198 29.9247 21.3831 29.9527 21.3831 29.987C21.3831 30.0212 21.3147 30.0492 21.2311 30.0492C21.1475 30.0492 21.0619 30.0772 21.0407 30.1114C21.0196 30.1457 20.9355 30.1737 20.854 30.1737C20.7725 30.1737 20.6884 30.2017 20.6673 30.2359C20.6461 30.2702 20.5621 30.2982 20.4806 30.2982C20.399 30.2982 20.3169 30.3231 20.2981 30.3536C20.2793 30.384 20.1726 30.424 20.061 30.4424C19.7229 30.4984 19.4912 30.5537 19.3602 30.6098C19.1474 30.7009 18.2735 30.8422 17.3685 30.9316C16.4811 31.0193 15.2965 31.0197 14.4742 30.9326C13.2495 30.8029 13.136 30.7875 13.0116 30.7338C12.9431 30.7042 12.8031 30.6659 12.7004 30.6486C12.5977 30.6312 12.3876 30.5853 12.2335 30.5465C12.0795 30.5077 11.8624 30.4609 11.7512 30.4424C11.6399 30.4241 11.5489 30.3841 11.5489 30.3536C11.5489 30.3231 11.4649 30.2982 11.3622 30.2982C11.2595 30.2982 11.1754 30.2702 11.1754 30.2359C11.1754 30.2017 11.0914 30.1737 10.9887 30.1737C10.886 30.1737 10.802 30.1457 10.802 30.1114C10.802 30.0772 10.7336 30.0492 10.6501 30.0492C10.5665 30.0492 10.4808 30.0212 10.4597 29.987C10.4385 29.9527 10.3669 29.9247 10.3004 29.9247C10.2339 29.9247 10.1796 29.8967 10.1796 29.8625C10.1796 29.8282 10.1362 29.8002 10.0832 29.8002C10.0302 29.8002 9.87091 29.7442 9.72919 29.6757C9.58746 29.6073 9.43478 29.5513 9.38985 29.5513C9.34491 29.5513 9.30819 29.5233 9.30819 29.489C9.30819 29.4548 9.25217 29.4268 9.1837 29.4268C9.11524 29.4268 9.05922 29.3988 9.05922 29.3645C9.05922 29.3303 9.0032 29.3023 8.93474 29.3023C8.86627 29.3023 8.81025 29.2777 8.81025 29.2476C8.81025 29.2175 8.72623 29.1581 8.62353 29.1156C8.52083 29.0731 8.4368 29.0136 8.4368 28.9835C8.4368 28.9534 8.38079 28.9288 8.31232 28.9288C8.24385 28.9288 8.18784 28.9008 8.18784 28.8666C8.18784 28.8324 8.15111 28.8043 8.10624 28.8043C8.0613 28.8043 7.96445 28.7483 7.89094 28.6799C7.8175 28.6114 7.72034 28.5554 7.67515 28.5554C7.6299 28.5554 7.55254 28.4994 7.50318 28.4309C7.45382 28.3624 7.37739 28.3064 7.33326 28.3064C7.28919 28.3064 7.16514 28.2224 7.05772 28.1197C6.95022 28.017 6.8357 27.933 6.80315 27.933C6.7706 27.933 6.6697 27.8548 6.57895 27.7594C6.48821 27.6639 6.31592 27.517 6.19611 27.433C5.91378 27.235 4.65332 25.9746 4.45533 25.6922C4.37131 25.5724 4.22442 25.4001 4.129 25.3094C4.03352 25.2186 3.95535 25.1206 3.95528 25.0915C3.95516 25.0625 3.8712 24.9406 3.76868 24.8208C3.66617 24.701 3.58221 24.5742 3.58208 24.5389C3.58202 24.5037 3.52594 24.4345 3.45748 24.3851C3.38901 24.3358 3.33299 24.2584 3.33299 24.2132C3.33299 24.168 3.27697 24.0708 3.20851 23.9974C3.14004 23.9239 3.08403 23.827 3.08403 23.7821C3.08403 23.7372 3.05602 23.7005 3.02178 23.7005C2.98755 23.7005 2.95954 23.6444 2.95954 23.576C2.95954 23.5075 2.93153 23.4515 2.8973 23.4515C2.86307 23.4515 2.83506 23.4095 2.83506 23.3581C2.83506 23.3068 2.80705 23.2648 2.77282 23.2648C2.73858 23.2648 2.71058 23.2228 2.71058 23.1714C2.71058 23.1201 2.68257 23.078 2.64833 23.078C2.6141 23.078 2.58609 23.022 2.58609 22.9536C2.58609 22.8851 2.55808 22.8291 2.52385 22.8291C2.48962 22.8291 2.46161 22.7731 2.46161 22.7046C2.46161 22.6361 2.4336 22.5801 2.39937 22.5801C2.36514 22.5801 2.33713 22.5377 2.33713 22.4859C2.33713 22.4341 2.30912 22.336 2.27489 22.268C2.24065 22.2 2.18463 22.0888 2.1504 22.0208C2.11617 21.9528 2.08816 21.8547 2.08816 21.8029C2.08816 21.7511 2.06015 21.7087 2.02592 21.7087C1.99169 21.7087 1.96368 21.6544 1.96368 21.5879C1.96368 21.5214 1.93567 21.4498 1.90144 21.4286C1.8672 21.4075 1.83919 21.3218 1.83919 21.2382C1.83919 21.1546 1.81119 21.0863 1.77695 21.0863C1.74272 21.0863 1.71471 21.0023 1.71471 20.8996C1.71471 20.7969 1.6867 20.7128 1.65247 20.7128C1.61824 20.7128 1.59023 20.6288 1.59023 20.5261C1.59023 20.4234 1.56222 20.3394 1.52799 20.3394C1.49375 20.3394 1.46574 20.243 1.46574 20.1252C1.46574 20.0074 1.43774 19.8937 1.4035 19.8726C1.36927 19.8514 1.34126 19.7433 1.34126 19.6324C1.34126 19.5214 1.31612 19.404 1.28537 19.3715C1.22941 19.3122 1.17725 19.0223 1.118 18.441C1.10057 18.2698 1.06155 18.0737 1.03136 18.0053C0.969368 17.8648 0.886649 16.627 0.892064 15.9202C0.898475 15.0791 0.980073 13.9906 1.03678 13.9906C1.06734 13.9906 1.09229 13.8243 1.09229 13.6209C1.09229 13.4174 1.1203 13.2338 1.15454 13.2126C1.18877 13.1914 1.21678 13.0498 1.21678 12.8977C1.21678 12.7457 1.24479 12.6213 1.27902 12.6213C1.31325 12.6213 1.34126 12.5093 1.34126 12.3723C1.34126 12.2354 1.36927 12.1234 1.4035 12.1234C1.43774 12.1234 1.46574 12.027 1.46574 11.9092C1.46574 11.7914 1.49375 11.6777 1.52799 11.6565C1.56222 11.6354 1.59023 11.5514 1.59023 11.4698C1.59023 11.3883 1.61824 11.3042 1.65247 11.2831C1.6867 11.2619 1.71471 11.1898 1.71471 11.1229C1.71471 11.056 1.74272 10.9457 1.77695 10.8776C1.81119 10.8097 1.8672 10.6984 1.90144 10.6304C1.93567 10.5624 1.96368 10.4503 1.96368 10.3814C1.96368 10.3125 1.99169 10.2561 2.02592 10.2561C2.06015 10.2561 2.08816 10.2001 2.08816 10.1316C2.08816 10.0631 2.11617 10.0071 2.1504 10.0071C2.18463 10.0071 2.21264 9.95278 2.21264 9.8863C2.21264 9.81983 2.24065 9.74819 2.27489 9.72702C2.30912 9.70586 2.33713 9.63422 2.33713 9.56774C2.33713 9.50127 2.36514 9.44693 2.39937 9.44693C2.4336 9.44693 2.46161 9.39091 2.46161 9.32245C2.46161 9.25398 2.48962 9.19796 2.52385 9.19796C2.55808 9.19796 2.58609 9.14194 2.58609 9.07348C2.58609 9.00501 2.6141 8.94899 2.64833 8.94899C2.68257 8.94899 2.71058 8.90698 2.71058 8.85563C2.71058 8.80428 2.73858 8.76226 2.77282 8.76226C2.80705 8.76226 2.83506 8.70625 2.83506 8.63778C2.83506 8.56931 2.86307 8.51329 2.8973 8.51329C2.93153 8.51329 2.95954 8.4701 2.95954 8.41732C2.95954 8.36453 3.01556 8.26121 3.08403 8.18777C3.15249 8.11426 3.20851 8.01741 3.20851 7.97247C3.20851 7.92759 3.23652 7.89087 3.27075 7.89087C3.30498 7.89087 3.33299 7.84886 3.33299 7.79751C3.33299 7.74616 3.361 7.70414 3.39523 7.70414C3.42947 7.70414 3.45748 7.66213 3.45748 7.61078C3.45748 7.55943 3.48075 7.51741 3.5092 7.51741C3.53764 7.51741 3.60051 7.44042 3.64881 7.34625C3.69717 7.25207 3.78592 7.12977 3.84605 7.07443C3.90617 7.01904 3.95541 6.94205 3.95541 6.90327C3.95541 6.86449 3.98342 6.83275 4.01765 6.83275C4.05188 6.83275 4.07989 6.8038 4.07989 6.76845C4.07989 6.73303 4.17095 6.61204 4.28218 6.49956C4.3934 6.38703 4.55448 6.20099 4.64007 6.08609C4.85797 5.79361 5.67421 4.97711 6.00938 4.7165C6.16343 4.59668 6.38146 4.40759 6.49381 4.29637C6.60622 4.18514 6.72398 4.09408 6.75553 4.09408C6.78709 4.09408 6.88288 4.02405 6.96846 3.93847C7.05404 3.85289 7.14635 3.7828 7.17361 3.7828C7.20081 3.78274 7.30444 3.71272 7.40397 3.6272C7.50343 3.54161 7.60644 3.47165 7.63289 3.47165C7.65934 3.47165 7.71885 3.43667 7.76515 3.39385C7.88061 3.2871 8.19574 3.09789 8.32788 3.056C8.38782 3.03695 8.4368 2.99668 8.4368 2.96643C8.4368 2.93624 8.49046 2.91147 8.55612 2.91147C8.62172 2.91147 8.68471 2.88614 8.69617 2.85514C8.72175 2.78561 9.73112 2.28904 9.84682 2.28904C9.89288 2.28904 9.9306 2.26104 9.9306 2.2268C9.9306 2.19257 9.97299 2.16456 10.0248 2.16456C10.0766 2.16456 10.1677 2.13985 10.2271 2.1096C10.5902 1.9248 11.7281 1.54213 11.9142 1.54213C11.9871 1.54213 12.0468 1.51412 12.0468 1.47989C12.0468 1.44566 12.1589 1.41765 12.2958 1.41765C12.4327 1.41765 12.5447 1.39244 12.5447 1.36169C12.5447 1.33088 12.6778 1.28837 12.8404 1.26721C13.003 1.24605 13.3321 1.19968 13.5717 1.16426C14.682 1.00006 15.9823 0.958175 17.1817 1.04805ZM10.3024 6.1014C10.2813 7.08004 10.3036 9.76929 10.3332 9.81715C10.3555 9.85319 10.442 9.88263 10.5256 9.88263C10.6092 9.88263 10.6775 9.9056 10.6775 9.93361C10.6775 9.96168 10.8175 10.0227 10.9887 10.0694C11.1599 10.116 11.2999 10.172 11.2999 10.1938C11.2999 10.2157 11.44 10.2717 11.6111 10.3183C11.7823 10.3649 11.9223 10.426 11.9223 10.4541C11.9223 10.4821 11.9787 10.5051 12.0477 10.5051C12.1687 10.5051 12.2287 10.5272 12.5283 10.6821C12.6049 10.7217 12.7239 10.754 12.7928 10.754C12.8618 10.754 12.9182 10.777 12.9182 10.805C12.9182 10.8331 13.0582 10.8941 13.2294 10.9408C13.4006 10.9874 13.5406 11.0484 13.5406 11.0765C13.5406 11.1045 13.609 11.1275 13.6925 11.1275C13.7761 11.1275 13.8618 11.1555 13.8829 11.1897C13.9041 11.224 13.9757 11.252 14.0422 11.252C14.1087 11.252 14.163 11.28 14.163 11.3142C14.163 11.3484 14.2471 11.3764 14.3498 11.3764C14.4525 11.3764 14.5365 11.3994 14.5365 11.4274C14.5365 11.4555 14.6765 11.5166 14.8477 11.5632C15.0189 11.6098 15.1589 11.6658 15.1589 11.6877C15.1589 11.7095 15.2989 11.7655 15.4701 11.8121C15.6413 11.8588 15.7813 11.9198 15.7813 11.9479C15.7813 11.9759 15.8377 11.9989 15.9067 11.9989C15.9756 11.9989 16.0876 12.0269 16.1556 12.0611C16.2236 12.0954 16.3349 12.1514 16.4029 12.1856C16.4709 12.2198 16.5829 12.2478 16.6518 12.2478C16.7208 12.2478 16.7772 12.2708 16.7772 12.2988C16.7772 12.3269 16.9172 12.388 17.0884 12.4346C17.2757 12.4855 17.3996 12.5545 17.3996 12.6076C17.3996 12.6946 17.0533 13.057 16.9703 13.057C16.9468 13.057 16.8304 13.148 16.7116 13.2593C16.5929 13.3705 16.37 13.5588 16.2163 13.6777C16.0626 13.7965 15.8949 13.9379 15.8436 13.9918C15.7922 14.0458 15.6522 14.1573 15.5323 14.2396C15.4125 14.322 15.2725 14.4334 15.2211 14.4874C15.1698 14.5414 15.0017 14.6819 14.8477 14.7998C14.6936 14.9177 14.5256 15.0577 14.4742 15.111C14.4229 15.1643 14.2551 15.3051 14.1015 15.424C13.9478 15.5428 13.7249 15.7311 13.6062 15.8423C13.4874 15.9536 13.3703 16.0446 13.346 16.0446C13.3217 16.0446 13.1852 16.1567 13.0427 16.2936C12.9001 16.4305 12.7637 16.5426 12.7394 16.5426C12.715 16.5426 12.598 16.6336 12.4792 16.7449C12.3605 16.8562 12.1376 17.0444 11.9839 17.1633C11.8302 17.2821 11.6625 17.4234 11.6111 17.4774C11.5598 17.5314 11.4197 17.6437 11.2999 17.7271C11.1801 17.8105 10.9901 17.9702 10.8777 18.082C10.7653 18.1939 10.6516 18.2854 10.625 18.2854C10.5984 18.2854 10.4869 18.3731 10.3773 18.4803C10.2297 18.6247 10.1949 18.6957 10.2435 18.7542C10.2864 18.806 10.3064 19.4287 10.3011 20.5558C10.2937 22.1601 10.3009 22.2842 10.4075 22.365C10.4704 22.4127 10.5849 22.4526 10.6619 22.4536C10.739 22.4547 10.802 22.4786 10.802 22.5066C10.802 22.5347 10.942 22.5957 11.1132 22.6423C11.2844 22.689 11.4244 22.75 11.4244 22.7781C11.4244 22.8061 11.4808 22.8291 11.5498 22.8291C11.6187 22.8291 11.7307 22.8571 11.7987 22.8913C11.8667 22.9255 11.978 22.9816 12.0459 23.0158C12.114 23.05 12.226 23.078 12.2949 23.078C12.3639 23.078 12.4203 23.101 12.4203 23.129C12.4203 23.1571 12.5603 23.2181 12.7315 23.2648C12.9026 23.3114 13.0427 23.3674 13.0427 23.3893C13.0427 23.4111 13.1827 23.4671 13.3539 23.5137C13.5251 23.5604 13.6651 23.6214 13.6651 23.6495C13.6651 23.6775 13.7491 23.7005 13.8518 23.7005C13.9545 23.7005 14.0385 23.7285 14.0385 23.7627C14.0385 23.7969 14.0929 23.825 14.1594 23.825C14.2258 23.825 14.2975 23.853 14.3186 23.8872C14.3398 23.9214 14.4254 23.9494 14.509 23.9494C14.5926 23.9494 14.661 23.9724 14.661 24.0004C14.661 24.0285 14.801 24.0895 14.9722 24.1362C15.1433 24.1828 15.2834 24.2388 15.2834 24.2606C15.2834 24.2825 15.4252 24.339 15.5985 24.3862C15.7719 24.4334 15.9276 24.4945 15.9445 24.5219C15.9615 24.5494 16.0437 24.5719 16.1273 24.5719C16.2109 24.5719 16.2792 24.5948 16.2792 24.6228C16.2792 24.6509 16.4193 24.712 16.5905 24.7586C16.7616 24.8052 16.9017 24.8612 16.9017 24.8831C16.9017 24.9049 17.0435 24.9614 17.2168 25.0086C17.3901 25.0559 17.5459 25.1169 17.5628 25.1444C17.5798 25.1718 17.662 25.1943 17.7456 25.1943C17.8292 25.1943 17.8975 25.2173 17.8975 25.2453C17.8975 25.2733 18.0376 25.3344 18.2087 25.381C18.3799 25.4276 18.5199 25.4837 18.5199 25.5055C18.5199 25.5273 18.66 25.5834 18.8312 25.63C19.0023 25.6766 19.1424 25.7377 19.1424 25.7657C19.1424 25.7937 19.1987 25.8167 19.2677 25.8167C19.3366 25.8167 19.4486 25.8447 19.5167 25.879C19.5846 25.9132 19.6959 25.9692 19.7639 26.0034C19.8319 26.0377 19.944 26.0657 20.0129 26.0657C20.0818 26.0657 20.1382 26.0886 20.1382 26.1167C20.1382 26.1447 20.2783 26.2058 20.4494 26.2524C20.6206 26.299 20.7606 26.3601 20.7606 26.3882C20.7606 26.4769 21.3245 26.4444 21.4186 26.3502C21.4912 26.2777 21.5075 25.9614 21.5075 24.6341C21.5075 22.9367 21.4913 22.8291 21.2355 22.8291C21.1838 22.8291 21.1241 22.8011 21.103 22.7668C21.0818 22.7326 20.9962 22.7046 20.9126 22.7046C20.829 22.7046 20.7606 22.6816 20.7606 22.6536C20.7606 22.6255 20.6206 22.5645 20.4494 22.5179C20.2783 22.4712 20.1382 22.4152 20.1382 22.3934C20.1382 22.3715 19.9982 22.3155 19.827 22.2689C19.6559 22.2223 19.5158 22.1663 19.5158 22.1444C19.5158 22.1226 19.374 22.066 19.2007 22.0189C19.0273 21.9716 18.8716 21.9106 18.8547 21.8831C18.8377 21.8557 18.7555 21.8332 18.6719 21.8332C18.5883 21.8332 18.5199 21.8052 18.5199 21.7709C18.5199 21.7367 18.4656 21.7087 18.3991 21.7087C18.3327 21.7087 18.261 21.6807 18.2399 21.6465C18.2187 21.6122 18.133 21.5842 18.0495 21.5842C17.9659 21.5842 17.8975 21.5613 17.8975 21.5332C17.8975 21.5052 17.7575 21.4441 17.5863 21.3975C17.4152 21.3509 17.2751 21.2949 17.2751 21.273C17.2751 21.2512 17.1351 21.1951 16.9639 21.1485C16.7927 21.1019 16.6527 21.0408 16.6527 21.0128C16.6527 20.9848 16.5963 20.9618 16.5273 20.9618C16.4584 20.9618 16.3464 20.9338 16.2784 20.8996C16.2104 20.8653 16.0991 20.8093 16.0311 20.7751C15.9631 20.7408 15.8511 20.7128 15.7822 20.7128C15.7132 20.7128 15.6568 20.6899 15.6568 20.6618C15.6568 20.6338 15.5168 20.5727 15.3456 20.5261C15.1745 20.4795 15.0344 20.4235 15.0344 20.4016C15.0344 20.3798 14.8944 20.3237 14.7232 20.2771C14.5359 20.2262 14.412 20.1572 14.412 20.1041C14.412 20.0121 14.7604 19.6547 14.8501 19.6547C14.8784 19.6547 15.0454 19.5147 15.2211 19.3435C15.3968 19.1723 15.5636 19.0323 15.5917 19.0323C15.6197 19.0323 15.7918 18.8922 15.9741 18.7211C16.1564 18.5499 16.3259 18.4099 16.3505 18.4099C16.3752 18.4099 16.5392 18.2698 16.7149 18.0986C16.8906 17.9275 17.0596 17.7874 17.0904 17.7874C17.1212 17.7874 17.2385 17.6959 17.3509 17.5841C17.4632 17.4723 17.652 17.3121 17.7704 17.2283C17.8888 17.1445 18.1109 16.9559 18.2639 16.8092C18.417 16.6626 18.5643 16.5426 18.5913 16.5426C18.6182 16.5426 18.7322 16.4511 18.8447 16.3392C18.957 16.2274 19.147 16.0675 19.2668 15.9838C19.3867 15.9 19.5547 15.7594 19.6403 15.6712C19.7259 15.5829 19.8939 15.4429 20.0137 15.36C20.1336 15.2771 20.3016 15.137 20.3872 15.0488C20.4728 14.9605 20.6408 14.8199 20.7606 14.7362C20.8805 14.6525 21.0705 14.4925 21.1828 14.3807C21.2952 14.2689 21.4143 14.1774 21.4473 14.1774C21.4848 14.1774 21.5075 13.4595 21.5075 12.279C21.5075 10.4221 21.5048 10.3806 21.3831 10.3806C21.3146 10.3806 21.2586 10.3576 21.2586 10.3296C21.2586 10.3015 21.1185 10.2405 20.9474 10.1938C20.7762 10.1472 20.6362 10.0862 20.6362 10.0581C20.6362 10.0301 20.5521 10.0071 20.4494 10.0071C20.3467 10.0071 20.2627 9.9791 20.2627 9.94487C20.2627 9.91064 20.2084 9.88263 20.1419 9.88263C20.0754 9.88263 20.0038 9.85462 19.9826 9.82039C19.9615 9.78615 19.8758 9.75814 19.7922 9.75814C19.7086 9.75814 19.6403 9.73518 19.6403 9.70717C19.6403 9.6791 19.5002 9.61804 19.3291 9.57142C19.1579 9.5248 19.0179 9.46878 19.0179 9.44693C19.0179 9.42509 18.8778 9.36907 18.7067 9.32245C18.5355 9.27583 18.3955 9.21981 18.3955 9.19796C18.3955 9.17612 18.2554 9.1201 18.0843 9.07348C17.9131 9.02686 17.773 8.9658 17.773 8.93773C17.773 8.90972 17.689 8.88675 17.5863 8.88675C17.4836 8.88675 17.3996 8.85874 17.3996 8.82451C17.3996 8.79027 17.3453 8.76226 17.2788 8.76226C17.2123 8.76226 17.1407 8.73425 17.1195 8.70002C17.0983 8.66579 17.0127 8.63778 16.9291 8.63778C16.8455 8.63778 16.7772 8.61481 16.7772 8.5868C16.7772 8.55873 16.6371 8.49767 16.466 8.45105C16.2948 8.40443 16.1548 8.34841 16.1548 8.32657C16.1548 8.30472 16.0147 8.2487 15.8436 8.20208C15.6724 8.15546 15.5323 8.0944 15.5323 8.06633C15.5323 8.03832 15.464 8.01535 15.3804 8.01535C15.2968 8.01535 15.2112 7.98735 15.19 7.95311C15.1689 7.91888 15.0972 7.89087 15.0307 7.89087C14.9643 7.89087 14.9099 7.86286 14.9099 7.82863C14.9099 7.79439 14.8259 7.76638 14.7232 7.76638C14.6205 7.76638 14.5365 7.73838 14.5365 7.70414C14.5365 7.66991 14.4821 7.6419 14.4157 7.6419C14.3492 7.6419 14.2776 7.61389 14.2564 7.57966C14.2352 7.54542 14.1496 7.51741 14.066 7.51741C13.9824 7.51741 13.9141 7.49445 13.9141 7.46644C13.9141 7.43837 13.774 7.37731 13.6029 7.33069C13.4317 7.28407 13.2916 7.22911 13.2916 7.20857C13.2916 7.18797 13.1586 7.13232 12.996 7.08483C12.7122 7.00198 12.6322 6.97037 12.3589 6.83275C12.2909 6.79851 12.1928 6.7705 12.1411 6.7705C12.0892 6.7705 12.0468 6.7425 12.0468 6.70826C12.0468 6.67403 11.9785 6.64602 11.8949 6.64602C11.8113 6.64602 11.7291 6.62355 11.7121 6.5961C11.6952 6.56865 11.5394 6.50759 11.3661 6.46035C11.1928 6.41317 11.051 6.35665 11.051 6.33481C11.051 6.31296 10.9109 6.25694 10.7397 6.21032C10.5686 6.1637 10.4285 6.10264 10.4285 6.07457C10.4285 5.99061 10.3042 6.01706 10.3024 6.1014Z" fill="white"/>
</svg>
